<mxfile host="app.diagrams.net" modified="2023-09-26T21:10:28.981Z" agent="Mozilla/5.0 (Windows NT 10.0; Win64; x64) AppleWebKit/537.36 (KHTML, like Gecko) Chrome/116.0.0.0 Safari/537.36" etag="Tjzko-uKiM5jonZTYyyr" version="21.8.2" type="google">
  <diagram id="C5RBs43oDa-KdzZeNtuy" name="Page-1">
    <mxGraphModel grid="1" page="1" gridSize="10" guides="1" tooltips="1" connect="1" arrows="1" fold="1" pageScale="1" pageWidth="827" pageHeight="1169" math="0" shadow="0">
      <root>
        <mxCell id="WIyWlLk6GJQsqaUBKTNV-0" />
        <mxCell id="WIyWlLk6GJQsqaUBKTNV-1" parent="WIyWlLk6GJQsqaUBKTNV-0" />
        <mxCell id="h5SVZFyE-1wDF2JDpIRb-6" value="" style="edgeStyle=orthogonalEdgeStyle;rounded=0;orthogonalLoop=1;jettySize=auto;html=1;" edge="1" parent="WIyWlLk6GJQsqaUBKTNV-1" source="h5SVZFyE-1wDF2JDpIRb-0" target="h5SVZFyE-1wDF2JDpIRb-1">
          <mxGeometry relative="1" as="geometry" />
        </mxCell>
        <mxCell id="h5SVZFyE-1wDF2JDpIRb-0" value="start" style="rounded=1;whiteSpace=wrap;html=1;" vertex="1" parent="WIyWlLk6GJQsqaUBKTNV-1">
          <mxGeometry x="100" y="50" width="120" height="60" as="geometry" />
        </mxCell>
        <mxCell id="h5SVZFyE-1wDF2JDpIRb-3" value="" style="edgeStyle=orthogonalEdgeStyle;rounded=0;orthogonalLoop=1;jettySize=auto;html=1;" edge="1" parent="WIyWlLk6GJQsqaUBKTNV-1" source="h5SVZFyE-1wDF2JDpIRb-1">
          <mxGeometry relative="1" as="geometry">
            <mxPoint x="160" y="270" as="targetPoint" />
          </mxGeometry>
        </mxCell>
        <mxCell id="h5SVZFyE-1wDF2JDpIRb-1" value="int a, int b" style="shape=parallelogram;perimeter=parallelogramPerimeter;whiteSpace=wrap;html=1;fixedSize=1;" vertex="1" parent="WIyWlLk6GJQsqaUBKTNV-1">
          <mxGeometry x="100" y="140" width="120" height="60" as="geometry" />
        </mxCell>
        <mxCell id="h5SVZFyE-1wDF2JDpIRb-10" value="" style="edgeStyle=orthogonalEdgeStyle;rounded=0;orthogonalLoop=1;jettySize=auto;html=1;" edge="1" parent="WIyWlLk6GJQsqaUBKTNV-1" source="h5SVZFyE-1wDF2JDpIRb-5" target="h5SVZFyE-1wDF2JDpIRb-9">
          <mxGeometry relative="1" as="geometry" />
        </mxCell>
        <mxCell id="h5SVZFyE-1wDF2JDpIRb-5" value="process&lt;br&gt;a += 1&lt;br&gt;b -= 1" style="rounded=0;whiteSpace=wrap;html=1;" vertex="1" parent="WIyWlLk6GJQsqaUBKTNV-1">
          <mxGeometry x="100" y="270" width="120" height="60" as="geometry" />
        </mxCell>
        <mxCell id="h5SVZFyE-1wDF2JDpIRb-7" value="end" style="rounded=1;whiteSpace=wrap;html=1;" vertex="1" parent="WIyWlLk6GJQsqaUBKTNV-1">
          <mxGeometry x="100" y="470" width="120" height="60" as="geometry" />
        </mxCell>
        <mxCell id="h5SVZFyE-1wDF2JDpIRb-11" value="" style="edgeStyle=orthogonalEdgeStyle;rounded=0;orthogonalLoop=1;jettySize=auto;html=1;" edge="1" parent="WIyWlLk6GJQsqaUBKTNV-1" source="h5SVZFyE-1wDF2JDpIRb-9" target="h5SVZFyE-1wDF2JDpIRb-7">
          <mxGeometry relative="1" as="geometry" />
        </mxCell>
        <mxCell id="h5SVZFyE-1wDF2JDpIRb-9" value="&quot;a = &quot;&lt;br&gt;&quot;b = &quot;" style="shape=document;whiteSpace=wrap;html=1;boundedLbl=1;" vertex="1" parent="WIyWlLk6GJQsqaUBKTNV-1">
          <mxGeometry x="100" y="360" width="120" height="80" as="geometry" />
        </mxCell>
        <mxCell id="h5SVZFyE-1wDF2JDpIRb-17" value="Task 3&lt;br&gt;" style="text;strokeColor=none;align=center;fillColor=default;html=1;verticalAlign=middle;whiteSpace=wrap;rounded=0;glass=0;shadow=0;" vertex="1" parent="WIyWlLk6GJQsqaUBKTNV-1">
          <mxGeometry x="130" y="10" width="60" height="30" as="geometry" />
        </mxCell>
        <mxCell id="h5SVZFyE-1wDF2JDpIRb-18" value="task 4&lt;br&gt;" style="text;strokeColor=none;align=center;fillColor=none;html=1;verticalAlign=middle;whiteSpace=wrap;rounded=0;" vertex="1" parent="WIyWlLk6GJQsqaUBKTNV-1">
          <mxGeometry x="530" y="10" width="60" height="30" as="geometry" />
        </mxCell>
        <mxCell id="h5SVZFyE-1wDF2JDpIRb-21" value="" style="edgeStyle=orthogonalEdgeStyle;rounded=0;orthogonalLoop=1;jettySize=auto;html=1;" edge="1" parent="WIyWlLk6GJQsqaUBKTNV-1" source="h5SVZFyE-1wDF2JDpIRb-19" target="h5SVZFyE-1wDF2JDpIRb-20">
          <mxGeometry relative="1" as="geometry" />
        </mxCell>
        <mxCell id="h5SVZFyE-1wDF2JDpIRb-19" value="start" style="rounded=1;whiteSpace=wrap;html=1;" vertex="1" parent="WIyWlLk6GJQsqaUBKTNV-1">
          <mxGeometry x="510" y="40" width="120" height="50" as="geometry" />
        </mxCell>
        <mxCell id="h5SVZFyE-1wDF2JDpIRb-23" value="" style="edgeStyle=orthogonalEdgeStyle;rounded=0;orthogonalLoop=1;jettySize=auto;html=1;" edge="1" parent="WIyWlLk6GJQsqaUBKTNV-1" source="h5SVZFyE-1wDF2JDpIRb-20" target="h5SVZFyE-1wDF2JDpIRb-22">
          <mxGeometry relative="1" as="geometry" />
        </mxCell>
        <mxCell id="h5SVZFyE-1wDF2JDpIRb-20" value="byte age , bool sudent_id" style="shape=parallelogram;perimeter=parallelogramPerimeter;whiteSpace=wrap;html=1;fixedSize=1;" vertex="1" parent="WIyWlLk6GJQsqaUBKTNV-1">
          <mxGeometry x="510" y="130" width="120" height="60" as="geometry" />
        </mxCell>
        <mxCell id="h5SVZFyE-1wDF2JDpIRb-25" value="false" style="edgeStyle=orthogonalEdgeStyle;rounded=0;orthogonalLoop=1;jettySize=auto;html=1;" edge="1" parent="WIyWlLk6GJQsqaUBKTNV-1" source="h5SVZFyE-1wDF2JDpIRb-22" target="h5SVZFyE-1wDF2JDpIRb-24">
          <mxGeometry relative="1" as="geometry" />
        </mxCell>
        <mxCell id="h5SVZFyE-1wDF2JDpIRb-27" value="true&lt;br&gt;" style="edgeStyle=orthogonalEdgeStyle;rounded=0;orthogonalLoop=1;jettySize=auto;html=1;" edge="1" parent="WIyWlLk6GJQsqaUBKTNV-1" source="h5SVZFyE-1wDF2JDpIRb-22" target="h5SVZFyE-1wDF2JDpIRb-26">
          <mxGeometry relative="1" as="geometry" />
        </mxCell>
        <mxCell id="h5SVZFyE-1wDF2JDpIRb-22" value="age &amp;lt;= 12 || age &amp;gt;= 60&lt;br&gt;age &amp;gt;=13 &amp;amp;&amp;amp; age &amp;lt;= 59&lt;br&gt;" style="rhombus;whiteSpace=wrap;html=1;" vertex="1" parent="WIyWlLk6GJQsqaUBKTNV-1">
          <mxGeometry x="505" y="270" width="130" height="120" as="geometry" />
        </mxCell>
        <mxCell id="h5SVZFyE-1wDF2JDpIRb-24" value="price 5 azn or 10 azn" style="shape=document;whiteSpace=wrap;html=1;boundedLbl=1;" vertex="1" parent="WIyWlLk6GJQsqaUBKTNV-1">
          <mxGeometry x="300" y="290" width="120" height="80" as="geometry" />
        </mxCell>
        <mxCell id="h5SVZFyE-1wDF2JDpIRb-30" value="" style="edgeStyle=orthogonalEdgeStyle;rounded=0;orthogonalLoop=1;jettySize=auto;html=1;entryX=1;entryY=0.5;entryDx=0;entryDy=0;" edge="1" parent="WIyWlLk6GJQsqaUBKTNV-1" source="h5SVZFyE-1wDF2JDpIRb-26" target="h5SVZFyE-1wDF2JDpIRb-28">
          <mxGeometry relative="1" as="geometry">
            <mxPoint x="780" y="460" as="targetPoint" />
            <Array as="points">
              <mxPoint x="780" y="400" />
              <mxPoint x="781" y="400" />
              <mxPoint x="781" y="510" />
            </Array>
          </mxGeometry>
        </mxCell>
        <mxCell id="h5SVZFyE-1wDF2JDpIRb-26" value="price 7.5 azn with discount" style="shape=document;whiteSpace=wrap;html=1;boundedLbl=1;" vertex="1" parent="WIyWlLk6GJQsqaUBKTNV-1">
          <mxGeometry x="720" y="290" width="120" height="80" as="geometry" />
        </mxCell>
        <mxCell id="h5SVZFyE-1wDF2JDpIRb-28" value="end" style="rounded=1;whiteSpace=wrap;html=1;" vertex="1" parent="WIyWlLk6GJQsqaUBKTNV-1">
          <mxGeometry x="520" y="480" width="120" height="60" as="geometry" />
        </mxCell>
        <mxCell id="h5SVZFyE-1wDF2JDpIRb-31" value="" style="edgeStyle=orthogonalEdgeStyle;rounded=0;orthogonalLoop=1;jettySize=auto;html=1;entryX=0;entryY=0.5;entryDx=0;entryDy=0;exitX=0.487;exitY=0.89;exitDx=0;exitDy=0;exitPerimeter=0;" edge="1" parent="WIyWlLk6GJQsqaUBKTNV-1" source="h5SVZFyE-1wDF2JDpIRb-24" target="h5SVZFyE-1wDF2JDpIRb-28">
          <mxGeometry relative="1" as="geometry">
            <mxPoint x="360" y="370" as="sourcePoint" />
            <mxPoint x="500" y="510" as="targetPoint" />
            <Array as="points">
              <mxPoint x="360" y="361" />
              <mxPoint x="360" y="510" />
            </Array>
          </mxGeometry>
        </mxCell>
      </root>
    </mxGraphModel>
  </diagram>
</mxfile>
